<?xml version="1.0" encoding="utf-8"?>
<!-- Generator: Adobe Illustrator 25.2.1, SVG Export Plug-In . SVG Version: 6.00 Build 0)  -->
<svg version="1.1" id="Layer_1" xmlns="http://www.w3.org/2000/svg" xmlns:xlink="http://www.w3.org/1999/xlink" x="0px" y="0px"
	 viewBox="0 0 1524 387" style="enable-background:new 0 0 1524 387;" xml:space="preserve">
<style type="text/css">
	.st0{fill:#FFFFFF;}
</style>
<path class="st0" d="M855.3,234.4c0-71.5,0-142.3,0-213.2c-18.2,0-36.1,0-54.5,0c0,32.5,0,64.5,0,96.7c-5.9,0.7-11.4,1.2-16.8,2.1
	c-29.9,5.2-58.8,13.7-84.6,30.3c-23.6,15.1-41.6,35.2-50.7,62.3c-0.5,1.6-0.9,3.3-1.4,5.4c21.7,1.7,42.8,3.4,63.9,4.9
	c1.3,0.1,3.4-1.7,4.2-3.1c4.7-8.6,10.1-16.6,18.8-21.6c20.5-11.9,43.3-12.8,66.7-13.4c0,15.3,0,30.1,0,45.3
	C819.2,231.6,837.1,233,855.3,234.4z"/>
<path class="st0" d="M617.4,227.4c-1.1-0.2-1.9-0.4-2.7-0.4c-37-3-74.1-5.5-111.1-9.1c-12.3-1.2-23.3,0.8-34.2,6.1
	c-16,7.8-30.6,17.2-39.6,33.1c-16.4,29-6.1,67.9,22.8,86.6c14.4,9.3,30.5,14.1,47.1,17.2c28.5,5.3,57.3,5.5,86.2,4.8
	c10.4-0.3,20.9-0.9,31.5-1.3C617.4,318.4,617.4,273,617.4,227.4z"/>
<path class="st0" d="M645,229.4c-0.3,1.4-0.6,2.2-0.7,3c-2.4,31.1,4.8,59.8,24,84.5c15.8,20.3,38,30.9,62.1,38.1
	c39.7,11.8,80.4,12.9,121.4,9.9c4-0.3,3.9-2.5,3.9-5.4c0-36.2,0-72.3,0-108.5c0-1.6-0.2-3.2-0.2-5c-18.4-1.4-36.2-2.8-54.6-4.2
	c0,24.3,0,47.7,0,71.2c-1.3,0.3-2.1,0.6-2.9,0.6c-20.2,0.1-40-2-58.4-11.1c-21.3-10.6-31.8-28.2-31.8-51.9c0-5.2,0.9-10.5,1.4-16.2
	C687.9,232.8,666.7,231.1,645,229.4z"/>
<path class="st0" d="M1093.3,364c0-33.4,0-66.1,0-99.2c-19.5-1.5-38.7-3.1-58.4-4.6c0,7.8,0.1,14.9-0.1,22c-0.1,2-0.7,4.5-2,5.7
	c-17,15.7-37.2,24.4-60.4,25.6c-11.8,0.6-19.8-5.7-22.3-17.3c-1.2-5.6-1.2-11.5-1.3-17.3c-0.2-8.4-0.1-16.8-0.1-25.6
	c-19.6-1.5-39-3.1-58.9-4.6c0.8,25.2,0.5,49.7,4.9,73.9c3.3,18.8,14.5,31.6,32.2,38.3c19.6,7.5,40,9,60.5,6
	c17.5-2.5,32.4-11.7,46.5-22.1c1.4-1,2.8-2,5.1-3.6c0,8.3,0,15.4,0,22.6C1057.4,364,1075.1,364,1093.3,364z"/>
<path class="st0" d="M75.3,184.4c0.1,1.1,0,1.4,0.1,1.7c26.1,57.8,52.2,115.6,78.5,173.4c0.6,1.4,3.2,2.7,4.9,2.8
	c7.3,0.3,14.7-0.1,22,0.2c4.3,0.2,6.4-1.2,8.2-5.2c23.4-50.8,47-101.5,70.5-152.3c0.8-1.8,1.6-3.6,2.6-5.9
	c-18.5-1.4-36.4-2.7-54.3-4.3c-3.8-0.3-5.6,0.6-7.1,4.2c-8.4,19.4-17,38.7-25.6,58.1c-0.6,1.5-1.4,2.9-2.4,4.9
	c-1.1-2.1-1.8-3.6-2.5-5c-8.6-18.8-17.6-37.4-25.6-56.4c-3.4-8.1-7.4-12.1-16.8-12.3C110.5,187.8,93.1,185.8,75.3,184.4z"/>
<path class="st0" d="M1304,110.6c-3.1-0.1-5.9-0.6-8.7-0.3c-17.9,1.5-35.9,2.5-53.7,5c-42.6,6-76.2,26.7-99.7,63.1
	c-14.4,22.3-21.6,46.3-18.4,73c0.4,3.6,1.8,4.7,5.3,4.8c6.8,0.3,13.6,1.1,20.4,1.6c12.1,0.9,24.2,1.8,36.8,2.8
	c-0.7-3-1.2-5.4-1.7-7.8c-7.7-32.4,8.6-76,51.1-85.9c14.2-3.3,28.7-5.6,43.2-7.8c8.3-1.3,16.8-1.3,25.4-1.9
	C1304,141.5,1304,126.3,1304,110.6z"/>
<path class="st0" d="M529.6,207.2c0,0.5,0.1,1,0.1,1.5c29.2,2.3,58.4,4.6,88.2,6.9c-0.8-23.8-5.3-45.7-17.8-65.4
	c-9.4-14.7-22.5-24.3-39.4-28.7c-32.6-8.6-65.6-10.9-99-7.7c-3.5,0.3-4.4,1.8-4.6,5c-0.8,12.6-1.9,25.2-2.8,37.9
	c-0.2,2.7,0,5.5,0,8.5c2.1-0.2,3.8-0.2,5.4-0.4c19.4-2,38.9-2.3,58.3,0.3c13.8,1.9,27.3,4.8,38.9,13.1c8.7,6.2,13.7,14.5,13.7,25.5
	C556.5,204.8,543,206,529.6,207.2z"/>
<path class="st0" d="M337.1,205c0,52.2,0,103.7,0,155.2c19.5,0,38.6,0,57.9,0c0-50.3,0-100.2,0-150.6
	C375.8,208.1,356.7,206.6,337.1,205z"/>
<path class="st0" d="M1093,253.2c0.3-1.3,0.5-1.8,0.5-2.2c0-44.3,0-88.6,0.1-132.9c0-3.3-1.5-3.8-4.3-3.7c-16.8,0.1-33.6,0-50.5,0.1
	c-1.3,0-2.5,0.3-3.6,0.5c0,44.8,0,89.1,0,133.8C1054.7,250.2,1073.8,251.7,1093,253.2z"/>
<path class="st0" d="M948.7,241.8c0-42.7,0-84.8,0-127.2c-19.5,0-38.5,0-58.4,0c0,40.9,0,81.6,0,122.6
	C909.8,238.7,929.1,240.3,948.7,241.8z"/>
<path class="st0" d="M395,114.7c-19.4,0-38.7,0-57.7,0c-0.3,0.6-0.5,0.9-0.5,1.2c-0.1,24.8,0,49.6-0.2,74.4c0,3.2,1.9,3.3,4.2,3.5
	c16.9,1.3,33.8,2.7,50.8,4c1.1,0.1,2.2-0.2,3.5-0.3C395,169.9,395,142.5,395,114.7z"/>
<path d="M1507,158c-3.5-0.2-6.9-0.4-10.4-0.5c-17.8,0-35.7,0-53.5,0c-1.8,0-3.6,0-6.3,0c0.5,41-0.7,81.5,0.7,122.9
	c-17.3-1.3-35.8-2.8-55.1-4.3c0-39.5,0-78.7,0-118.5c-14.8,0-28.7,0-42.9,0c0-15.8,0-31.1,0-47.1c15.3,0,30.6,0,46.5,0
	c0-18.5,0-36.3,0-54.3c18.4,0,36.3,0,54.8,0c0,17.9,0,35.7,0,53.7c1.4,0.2,2.4,0.5,3.3,0.5c20.2,0,40.3,0,60.5,0
	c0.8,0,1.6-0.3,2.4-0.4C1507,126,1507,142,1507,158z"/>
<path d="M286,11c1.4,0.8,2.7,1.8,4.1,2.5c14.4,6.2,28.8,12.4,43.1,18.5c1.7,0.7,3.3,1.5,5.3,2.4c-1.4,3.2-2.6,6.1-3.9,8.9
	c-21.7,46.8-43.5,93.6-65.1,140.5c-1.5,3.3-3.2,4.2-6.8,3.9c-15.9-1.5-31.9-2.6-47.8-3.9c-2.1-0.2-4.2-0.4-6.8-0.7
	c0.7-1.8,1.1-3.2,1.7-4.5c24.3-55.1,48.7-110.3,73-165.4c0.3-0.8,0.7-1.5,1.1-2.2C284.7,11,285.3,11,286,11z"/>
<path d="M1279,369c-11.9-1.3-23.9-2.1-35.7-4.1c-51.1-8.4-88.9-34.9-110.8-82.5c-2.1-4.5-3.6-9.2-5.8-14.9
	c8.7,0.6,16.4,1.1,24.1,1.7c11.8,0.9,23.6,2,35.4,2.7c3,0.2,4.9,1.1,5.9,4.1c4.6,13,14.2,21,26.5,26.3c21.4,9.1,44.1,11,67,11.6
	c8.5,0.2,17,0,26.3,0c-1.3,17.9-2.5,35.8-3.8,53.8c-2,0.5-3.6,0.8-5.2,1.2C1295,369,1287,369,1279,369z"/>
<path d="M58,11c21.9,48,43.8,96,65.7,144c3.2,7.1,6.4,14.2,10.1,22.2c-7-0.5-13-0.9-19.1-1.3c-13.4-1-26.9-2.2-40.3-3.1
	c-3.8-0.2-5.8-1.6-7.4-5.2C48.1,125.4,29,83.3,9.9,41.1C9.1,39.3,8,37.7,7,36c0-0.7,0-1.3,0-2c12.7-5.8,25.4-11.5,38.1-17.3
	C48.8,15,52.4,12.9,56,11C56.7,11,57.3,11,58,11z"/>
<path d="M1507,311c-1,12.4-2,24.8-3,37.2c-0.3,4-0.6,7.9-0.9,11.8c-11.2,0-22,0.5-32.7-0.1c-15.3-0.8-30.5-3.1-44.9-8.9
	c-23.4-9.4-42.5-38.2-41.6-63.1c4.1,0.3,8.2,0.6,12.3,0.9c15.4,1.2,30.9,2.4,46.3,3.6c1.8,0.1,3.9,0,5.4,0.9
	c17.4,10.3,36.4,10.6,55.7,8.9c1.2-0.1,2.3-0.1,3.5-0.2C1507,305,1507,308,1507,311z"/>
<path d="M855.3,234.4c-18.2-1.4-36.1-2.8-54.5-4.3c0-15.2,0-30,0-45.3c-23.5,0.6-46.2,1.5-66.7,13.4c-8.7,5-14.1,13-18.8,21.6
	c-0.8,1.4-2.8,3.2-4.2,3.1c-21.1-1.4-42.1-3.2-63.9-4.9c0.5-2.1,0.9-3.8,1.4-5.4c9.1-27.1,27.1-47.2,50.7-62.3
	c25.8-16.5,54.6-25,84.6-30.3c5.4-0.9,10.9-1.4,16.8-2.1c0-32.1,0-64.2,0-96.7c18.4,0,36.3,0,54.5,0
	C855.3,92.1,855.3,162.9,855.3,234.4z"/>
<path d="M617.4,227.4c0,45.6,0,91,0,137c-10.6,0.5-21.1,1.1-31.5,1.3c-28.8,0.7-57.7,0.5-86.2-4.8c-16.6-3.1-32.7-7.9-47.1-17.2
	c-28.9-18.7-39.2-57.6-22.8-86.6c9-16,23.6-25.3,39.6-33.1c10.9-5.3,21.9-7.3,34.2-6.1c37,3.6,74.1,6.1,111.1,9.1
	C615.5,227.1,616.3,227.3,617.4,227.4z M566.4,247c-7.7,0.4-15,0.5-22.3,1.1c-15.9,1.4-31.2,4.9-45.1,13.3
	c-10.3,6.2-14.3,15.5-13.4,27c0.9,11.7,6.6,20.7,18,24.7c20.2,7.2,41.4,7.5,62.8,8.1C566.4,296.5,566.4,272.3,566.4,247z"/>
<path d="M645,229.4c21.6,1.7,42.8,3.4,64.2,5.1c-0.5,5.7-1.5,10.9-1.4,16.2c0,23.7,10.5,41.3,31.8,51.9
	c18.4,9.1,38.2,11.2,58.4,11.1c0.8,0,1.6-0.4,2.9-0.6c0-23.5,0-46.9,0-71.2c18.4,1.4,36.2,2.8,54.6,4.2c0.1,1.8,0.2,3.4,0.2,5
	c0,36.2,0,72.3,0,108.5c0,2.9,0.1,5.1-3.9,5.4c-41,3-81.6,1.9-121.4-9.9c-24-7.1-46.3-17.8-62.1-38.1c-19.2-24.7-26.4-53.4-24-84.5
	C644.4,231.6,644.7,230.8,645,229.4z"/>
<path d="M1093.3,364c-18.1,0-35.9,0-54.2,0c0-7.3,0-14.3,0-22.6c-2.3,1.6-3.7,2.6-5.1,3.6c-14.1,10.4-29,19.5-46.5,22.1
	c-20.5,3-41,1.4-60.5-6c-17.7-6.8-28.8-19.6-32.2-38.3c-4.3-24.2-4-48.7-4.9-73.9c19.9,1.6,39.2,3.1,58.9,4.6
	c0,8.8-0.1,17.2,0.1,25.6c0.1,5.8,0.1,11.7,1.3,17.3c2.5,11.6,10.6,17.9,22.3,17.3c23.1-1.2,43.3-9.9,60.4-25.6
	c1.3-1.2,1.9-3.8,2-5.7c0.2-7.1,0.1-14.3,0.1-22c19.7,1.6,38.9,3.1,58.4,4.6C1093.3,297.9,1093.3,330.7,1093.3,364z"/>
<path d="M75.3,184.4c17.8,1.4,35.1,3.4,52.6,3.8c9.4,0.2,13.4,4.2,16.8,12.3c7.9,19,17,37.6,25.6,56.4c0.7,1.5,1.4,2.9,2.5,5
	c1-2.1,1.8-3.5,2.4-4.9c8.6-19.3,17.2-38.6,25.6-58.1c1.5-3.5,3.3-4.5,7.1-4.2c17.9,1.6,35.8,2.9,54.3,4.3c-1,2.3-1.7,4.1-2.6,5.9
	c-23.5,50.7-47.1,101.5-70.5,152.3c-1.8,4-3.9,5.4-8.2,5.2c-7.3-0.4-14.7,0.1-22-0.2c-1.7-0.1-4.3-1.4-4.9-2.8
	c-26.3-57.7-52.4-115.6-78.5-173.4C75.3,185.8,75.4,185.4,75.3,184.4z"/>
<path d="M1304,110.6c0,15.7,0,30.9,0,46.6c-8.5,0.6-17,0.6-25.4,1.9c-14.5,2.2-28.9,4.5-43.2,7.8c-42.5,9.8-58.7,53.4-51.1,85.9
	c0.6,2.4,1.1,4.8,1.7,7.8c-12.6-0.9-24.7-1.8-36.8-2.8c-6.8-0.5-13.6-1.3-20.4-1.6c-3.5-0.1-4.8-1.2-5.3-4.8
	c-3.2-26.7,4-50.8,18.4-73c23.5-36.4,57.1-57.1,99.7-63.1c17.8-2.5,35.8-3.4,53.7-5C1298.1,110,1300.9,110.4,1304,110.6z"/>
<path d="M529.6,207.2c13.4-1.2,26.9-2.4,40.8-3.6c0.1-11-4.9-19.3-13.7-25.5c-11.6-8.3-25.1-11.2-38.9-13.1
	c-19.4-2.6-38.9-2.3-58.3-0.3c-1.6,0.2-3.3,0.3-5.4,0.4c0-3-0.2-5.8,0-8.5c0.9-12.6,2-25.2,2.8-37.9c0.2-3.2,1.1-4.6,4.6-5
	c33.5-3.2,66.5-0.9,99,7.7c16.9,4.5,30,14.1,39.4,28.7c12.6,19.7,17,41.6,17.8,65.4c-29.8-2.3-59-4.6-88.2-6.9
	C529.6,208.2,529.6,207.7,529.6,207.2z"/>
<path d="M337.1,205c19.6,1.6,38.6,3.1,57.9,4.6c0,50.4,0,100.4,0,150.6c-19.3,0-38.4,0-57.9,0C337.1,308.7,337.1,257.2,337.1,205z"
	/>
<path d="M1093,253.2c-19.2-1.5-38.3-3-57.7-4.6c0-44.6,0-89,0-133.8c1.1-0.2,2.4-0.5,3.6-0.5c16.8,0,33.6,0,50.5-0.1
	c2.7,0,4.3,0.4,4.3,3.7c-0.1,44.3-0.1,88.6-0.1,132.9C1093.6,251.4,1093.3,251.9,1093,253.2z"/>
<path d="M948.7,241.8c-19.6-1.5-38.9-3.1-58.4-4.6c0-41,0-81.6,0-122.6c19.8,0,38.9,0,58.4,0C948.7,157,948.7,199.1,948.7,241.8z"/>
<path d="M395,114.7c0,27.7,0,55.1,0,82.9c-1.3,0.1-2.4,0.3-3.5,0.3c-16.9-1.3-33.8-2.7-50.8-4c-2.2-0.2-4.2-0.3-4.2-3.5
	c0.1-24.8,0.1-49.6,0.2-74.4c0-0.3,0.2-0.6,0.5-1.2C356.4,114.7,375.6,114.7,395,114.7z"/>
</svg>
